<svg xmlns="http://www.w3.org/2000/svg" width="720" height="632" viewBox="0 0 720 632">
<g>
<path d="M 295.00 473.09 C285.97,476.24 261.99,476.84 251.47,474.17 C220.52,466.33 192.63,438.86 182.25,406.00 C181.38,403.26 180.66,401.10 180.05,398.91 C176.93,387.60 176.96,375.42 177.19,278.93 C177.20,274.16 177.21,269.19 177.22,264.00 L 177.50 143.50 L 179.82 137.76 C185.32,124.14 194.79,115.13 209.45,109.57 C221.23,105.10 236.21,100.70 250.50,97.51 C254.35,96.65 259.30,95.53 261.50,95.03 C265.47,94.11 271.63,93.11 286.00,91.04 C331.39,84.50 395.33,84.50 437.50,91.05 C441.35,91.65 447.42,92.59 451.00,93.15 C459.08,94.40 476.05,97.96 484.50,100.17 C495.06,102.94 514.23,109.51 520.61,112.55 C529.37,116.73 536.82,123.29 541.45,130.91 C548.14,141.92 547.94,138.77 548.23,239.75 C548.38,289.94 548.19,331.00 547.80,331.00 C547.42,331.00 545.48,328.55 543.50,325.56 C534.63,312.21 518.34,297.52 504.26,290.19 C488.07,281.77 479.79,279.37 461.04,277.65 L 448.57 276.50 L 447.61 273.12 C446.31,268.59 434.05,255.28 400.86,222.35 C371.60,193.32 371.19,193.02 361.22,193.01 C358.86,193.00 355.26,193.70 353.22,194.55 C348.63,196.45 282.11,262.40 278.30,268.81 C276.38,272.04 275.75,274.46 275.79,278.45 C275.88,289.42 282.66,296.00 293.87,296.00 C300.63,296.00 304.84,292.91 322.99,274.61 C331.51,266.03 338.82,259.00 339.24,259.00 C339.66,259.00 340.00,282.62 340.00,311.50 C340.00,352.79 339.73,364.02 338.75,364.08 C338.06,364.12 334.50,364.09 330.83,364.01 C327.16,363.93 322.21,364.43 319.83,365.12 C313.86,366.85 305.78,372.11 302.50,376.41 C300.99,378.39 299.37,380.00 298.89,380.00 C298.41,380.00 298.02,373.59 298.04,365.75 C298.06,351.43 297.55,347.88 294.71,342.44 C289.22,331.93 273.62,326.81 262.48,331.87 C256.84,334.43 249.52,342.86 248.13,348.41 C247.41,351.25 247.00,364.21 247.00,383.91 C247.00,412.98 247.13,415.28 249.10,420.54 C253.30,431.75 261.31,437.29 273.25,437.23 C278.66,437.20 280.87,436.68 284.42,434.60 C292.07,430.12 295.01,425.56 302.44,406.63 C310.05,387.23 312.46,383.84 321.33,380.06 C327.46,377.45 332.55,377.45 338.67,380.06 C344.97,382.76 348.71,386.34 351.62,392.50 C354.73,399.09 354.61,403.95 351.06,414.83 C341.31,444.65 323.54,463.13 295.00,473.09 ZM 254.70 197.37 C255.09,197.76 259.03,197.95 263.45,197.79 L 271.50 197.50 L 272.50 180.50 L 285.50 180.50 L 286.50 197.50 L 303.50 197.50 L 304.07 177.23 L 297.78 171.79 C290.72,165.68 279.45,157.00 278.58,157.00 C278.27,157.00 272.61,161.35 266.01,166.66 L 254.00 176.32 L 254.00 186.49 C254.00,192.09 254.32,196.98 254.70,197.37 ZM 473.87 206.35 C475.93,208.82 479.69,208.40 481.61,205.47 C482.99,203.37 483.15,201.45 482.59,194.22 C480.98,173.61 472.16,156.54 455.92,142.60 C444.67,132.94 432.80,127.82 416.80,125.74 C408.80,124.70 407.92,124.76 406.05,126.46 C401.40,130.66 404.73,136.00 412.00,136.00 C425.59,136.00 442.62,143.63 453.48,154.58 C465.80,167.00 470.90,178.08 471.89,194.60 C472.27,200.87 473.02,205.32 473.87,206.35 ZM 239.05 176.09 C240.87,179.50 245.02,178.43 252.07,172.75 C255.66,169.86 262.98,163.95 268.34,159.60 C277.20,152.43 278.29,151.82 280.29,152.93 C281.51,153.60 289.24,159.51 297.48,166.07 C312.30,177.87 315.50,179.51 317.96,176.55 C319.87,174.25 318.29,171.38 312.96,167.47 C304.99,161.62 304.00,159.84 304.00,151.37 L 304.00 144.00 L 294.00 144.00 L 294.00 147.50 C294.00,149.43 293.57,151.00 293.05,151.00 C292.53,151.00 289.13,148.75 285.50,146.00 C281.87,143.25 278.51,141.00 278.03,141.00 C276.98,141.00 242.20,169.32 239.76,172.16 C238.45,173.69 238.28,174.65 239.05,176.09 ZM 453.76 205.25 C455.98,207.76 459.67,207.44 461.54,204.57 C463.48,201.62 462.71,190.55 460.00,182.29 C453.41,162.18 431.84,146.00 411.62,146.00 C406.50,146.00 405.84,146.25 404.78,148.58 C402.65,153.25 404.97,155.15 415.00,156.95 C435.74,160.67 450.92,176.73 451.84,195.93 C452.08,200.92 452.74,204.10 453.76,205.25 ZM 389.72 299.58 C388.14,300.91 386.43,302.00 385.92,302.00 C385.39,302.00 385.00,293.33 385.00,281.42 C385.00,270.10 385.39,260.98 385.87,261.17 C386.35,261.35 392.20,266.74 398.87,273.15 C409.88,283.72 412.56,287.00 410.17,287.00 C408.94,287.00 393.06,296.77 389.72,299.58 ZM 434.27 204.25 C436.65,206.39 436.98,206.40 439.78,204.44 C444.67,201.02 441.40,186.15 433.88,177.60 C426.30,168.99 410.53,163.40 405.83,167.65 C401.76,171.34 404.51,175.05 412.75,176.97 C422.97,179.36 429.16,185.78 431.10,196.00 C431.85,199.95 433.09,203.19 434.27,204.25 ZM 404.69 203.20 C406.84,205.44 408.26,206.00 411.79,206.00 C415.43,206.00 416.70,205.46 419.10,202.89 C423.11,198.60 422.96,194.76 418.60,190.40 C414.07,185.87 409.15,185.70 404.92,189.92 C400.98,193.87 400.88,199.22 404.69,203.20 Z" fill="rgb(40,89,154)"/>
<path d="M 381.50 561.49 C376.15,563.48 372.14,564.19 364.50,564.48 C359.00,564.69 353.38,564.64 352.00,564.37 C348.13,563.62 336.60,559.13 328.91,555.39 C325.08,553.52 321.79,552.00 321.60,552.00 C320.62,552.00 299.07,539.48 289.00,533.07 C275.78,524.64 263.56,515.60 250.00,504.21 C238.41,494.48 225.08,480.82 226.65,480.29 C227.28,480.08 230.65,481.06 234.15,482.49 C237.64,483.91 244.77,486.26 250.00,487.71 C258.62,490.10 261.17,490.35 277.50,490.38 C293.83,490.41 296.52,490.16 306.50,487.68 C325.11,483.05 340.65,475.94 353.80,466.03 C368.12,455.24 376.85,443.57 381.51,429.00 C385.22,417.42 388.57,413.12 395.90,410.53 C401.91,408.42 405.65,408.62 411.62,411.40 C422.92,416.67 425.87,427.00 420.15,441.28 C418.47,445.49 415.04,452.87 412.55,457.68 C407.58,467.25 406.81,472.26 409.65,476.59 C413.58,482.58 423.89,484.01 431.42,479.60 C439.97,474.59 448.80,462.47 451.90,451.50 C453.94,444.29 455.83,433.65 456.53,425.50 C456.91,421.10 457.34,416.83 457.50,416.00 C458.47,410.86 459.06,357.15 458.17,354.86 C456.72,351.16 451.28,345.20 447.60,343.28 C443.56,341.16 433.48,341.14 429.50,343.24 C423.08,346.63 420.00,351.31 413.56,367.50 C406.58,385.02 404.08,389.84 400.55,392.53 C390.76,400.00 378.29,399.86 369.77,392.18 C361.25,384.50 359.90,375.11 365.09,359.74 C372.97,336.42 385.58,319.35 403.84,307.31 C414.18,300.50 420.75,297.55 432.79,294.35 C441.17,292.12 443.62,291.90 455.83,292.27 C473.12,292.81 481.94,294.79 494.50,300.96 C517.22,312.13 533.23,329.70 542.36,353.50 C549.72,372.68 549.47,388.73 541.44,412.85 C538.08,422.92 529.36,441.04 523.46,450.19 C495.77,493.11 433.05,542.29 381.50,561.49 ZM 473.87 206.35 C473.02,205.32 472.27,200.87 471.89,194.60 C470.90,178.08 465.80,167.00 453.48,154.58 C442.62,143.63 425.59,136.00 412.00,136.00 C404.73,136.00 401.40,130.66 406.05,126.46 C407.92,124.76 408.80,124.70 416.80,125.74 C432.80,127.82 444.67,132.94 455.92,142.60 C472.16,156.54 480.98,173.61 482.59,194.22 C483.15,201.45 482.99,203.37 481.61,205.47 C479.69,208.40 475.93,208.82 473.87,206.35 ZM 453.76 205.25 C452.74,204.10 452.08,200.92 451.84,195.93 C450.92,176.73 435.74,160.67 415.00,156.95 C404.97,155.15 402.65,153.25 404.78,148.58 C405.84,146.25 406.50,146.00 411.62,146.00 C431.84,146.00 453.41,162.18 460.00,182.29 C462.71,190.55 463.48,201.62 461.54,204.57 C459.67,207.44 455.98,207.76 453.76,205.25 ZM 434.27 204.25 C433.09,203.19 431.85,199.95 431.10,196.00 C429.16,185.78 422.97,179.36 412.75,176.97 C404.51,175.05 401.76,171.34 405.83,167.65 C410.53,163.40 426.30,168.99 433.88,177.60 C441.40,186.15 444.67,201.02 439.78,204.44 C436.98,206.40 436.65,206.39 434.27,204.25 ZM 404.69 203.20 C400.88,199.22 400.98,193.87 404.92,189.92 C409.15,185.70 414.07,185.87 418.60,190.40 C422.96,194.76 423.11,198.60 419.10,202.89 C416.70,205.46 415.43,206.00 411.79,206.00 C408.26,206.00 406.84,205.44 404.69,203.20 Z" fill="rgb(244,185,54)"/>
<path d="M 0.00 316.00 L 0.00 0.00 L 360.00 0.00 L 720.00 0.00 L 720.00 316.00 L 720.00 632.00 L 360.00 632.00 L 0.00 632.00 L 0.00 316.00 ZM 381.50 561.49 C433.05,542.29 495.77,493.11 523.46,450.19 C529.36,441.04 538.08,422.92 541.44,412.85 C549.47,388.73 549.72,372.68 542.36,353.50 C533.23,329.70 517.22,312.13 494.50,300.96 C481.94,294.79 473.12,292.81 455.83,292.27 C443.62,291.90 441.17,292.12 432.79,294.35 C420.75,297.55 414.18,300.50 403.84,307.31 C385.58,319.35 372.97,336.42 365.09,359.74 C359.90,375.11 361.25,384.50 369.77,392.18 C378.29,399.86 390.76,400.00 400.55,392.53 C404.08,389.84 406.58,385.02 413.56,367.50 C420.00,351.31 423.08,346.63 429.50,343.24 C433.48,341.14 443.56,341.16 447.60,343.28 C451.28,345.20 456.72,351.16 458.17,354.86 C459.06,357.15 458.47,410.86 457.50,416.00 C457.34,416.83 456.91,421.10 456.53,425.50 C455.83,433.65 453.94,444.29 451.90,451.50 C448.80,462.47 439.97,474.59 431.42,479.60 C423.89,484.01 413.58,482.58 409.65,476.59 C406.81,472.26 407.58,467.25 412.55,457.68 C415.04,452.87 418.47,445.49 420.15,441.28 C425.87,427.00 422.92,416.67 411.62,411.40 C405.65,408.62 401.91,408.42 395.90,410.53 C388.57,413.12 385.22,417.42 381.51,429.00 C376.85,443.57 368.12,455.24 353.80,466.03 C340.65,475.94 325.11,483.05 306.50,487.68 C296.52,490.16 293.83,490.41 277.50,490.38 C261.17,490.35 258.62,490.10 250.00,487.71 C244.77,486.26 237.64,483.91 234.15,482.49 C230.65,481.06 227.28,480.08 226.65,480.29 C225.08,480.82 238.41,494.48 250.00,504.21 C263.56,515.60 275.78,524.64 289.00,533.07 C299.07,539.48 320.62,552.00 321.60,552.00 C321.79,552.00 325.08,553.52 328.91,555.39 C336.60,559.13 348.13,563.62 352.00,564.37 C353.38,564.64 359.00,564.69 364.50,564.48 C372.14,564.19 376.15,563.48 381.50,561.49 ZM 295.00 473.09 C323.54,463.13 341.31,444.65 351.06,414.83 C354.61,403.95 354.73,399.09 351.62,392.50 C348.71,386.34 344.97,382.76 338.67,380.06 C332.55,377.45 327.46,377.45 321.33,380.06 C312.46,383.84 310.05,387.23 302.44,406.63 C295.01,425.56 292.07,430.12 284.42,434.60 C280.87,436.68 278.66,437.20 273.25,437.23 C261.31,437.29 253.30,431.75 249.10,420.54 C247.13,415.28 247.00,412.98 247.00,383.91 C247.00,364.21 247.41,351.25 248.13,348.41 C249.52,342.86 256.84,334.43 262.48,331.87 C273.62,326.81 289.22,331.93 294.71,342.44 C297.55,347.88 298.06,351.43 298.04,365.75 C298.02,373.59 298.41,380.00 298.89,380.00 C299.37,380.00 300.99,378.39 302.50,376.41 C305.78,372.11 313.86,366.85 319.83,365.12 C322.21,364.43 327.16,363.93 330.83,364.01 C334.50,364.09 338.06,364.12 338.75,364.08 C339.73,364.02 340.00,352.79 340.00,311.50 C340.00,282.62 339.66,259.00 339.24,259.00 C338.82,259.00 331.51,266.03 322.99,274.61 C304.84,292.91 300.63,296.00 293.87,296.00 C282.66,296.00 275.88,289.42 275.79,278.45 C275.75,274.46 276.38,272.04 278.30,268.81 C282.11,262.40 348.63,196.45 353.22,194.55 C355.26,193.70 358.86,193.00 361.22,193.01 C371.19,193.02 371.60,193.32 400.86,222.35 C434.05,255.28 446.31,268.59 447.61,273.12 L 448.57 276.50 L 461.04 277.65 C479.79,279.37 488.07,281.77 504.26,290.19 C518.34,297.52 534.63,312.21 543.50,325.56 C545.48,328.55 547.42,331.00 547.80,331.00 C548.19,331.00 548.38,289.94 548.23,239.75 C547.94,138.77 548.14,141.92 541.45,130.91 C536.82,123.29 529.37,116.73 520.61,112.55 C514.23,109.51 495.06,102.94 484.50,100.17 C476.05,97.96 459.08,94.40 451.00,93.15 C447.42,92.59 441.35,91.65 437.50,91.05 C395.33,84.50 331.39,84.50 286.00,91.04 C271.63,93.11 265.47,94.11 261.50,95.03 C259.30,95.53 254.35,96.65 250.50,97.51 C236.21,100.70 221.23,105.10 209.45,109.57 C194.79,115.13 185.32,124.14 179.82,137.76 L 177.50 143.50 L 177.22 264.00 C176.92,394.58 176.70,388.46 182.25,406.00 C192.63,438.86 220.52,466.33 251.47,474.17 C261.99,476.84 285.97,476.24 295.00,473.09 ZM 389.72 299.58 C393.06,296.77 408.94,287.00 410.17,287.00 C412.56,287.00 409.88,283.72 398.87,273.15 C392.20,266.74 386.35,261.35 385.87,261.17 C385.39,260.98 385.00,270.10 385.00,281.42 C385.00,293.33 385.39,302.00 385.92,302.00 C386.43,302.00 388.14,300.91 389.72,299.58 ZM 254.70 197.37 C254.32,196.98 254.00,192.09 254.00,186.49 L 254.00 176.32 L 266.01 166.66 C272.61,161.35 278.27,157.00 278.58,157.00 C279.45,157.00 290.72,165.68 297.78,171.79 L 304.07 177.23 L 303.78 187.36 L 303.50 197.50 L 295.00 197.50 L 286.50 197.50 L 286.00 189.00 L 285.50 180.50 L 279.00 180.50 L 272.50 180.50 L 272.00 189.00 L 271.50 197.50 L 263.45 197.79 C259.03,197.95 255.09,197.76 254.70,197.37 ZM 239.05 176.09 C238.28,174.65 238.45,173.69 239.76,172.16 C242.20,169.32 276.98,141.00 278.03,141.00 C278.51,141.00 281.87,143.25 285.50,146.00 C289.13,148.75 292.53,151.00 293.05,151.00 C293.57,151.00 294.00,149.43 294.00,147.50 L 294.00 144.00 L 299.00 144.00 L 304.00 144.00 L 304.00 151.37 C304.00,159.84 304.99,161.62 312.96,167.47 C318.29,171.38 319.87,174.25 317.96,176.55 C315.50,179.51 312.30,177.87 297.48,166.07 C289.24,159.51 281.51,153.60 280.29,152.93 C278.29,151.82 277.20,152.43 268.34,159.60 C262.98,163.95 255.66,169.86 252.07,172.75 C245.02,178.43 240.87,179.50 239.05,176.09 Z" fill="rgb(254,254,254)"/>
</g>
</svg>